<?xml version="1.0" encoding="UTF-8" standalone="no"?>
<!-- Created with Inkscape (http://www.inkscape.org/) -->

<svg
   version="1.1"
   id="svg1"
   width="1024"
   height="1024"
   viewBox="0 0 1024 1024"
   sodipodi:docname="Clowneau_Master_G.svg"
   inkscape:version="1.4.4 (dcaf3e7d9e, 2026-05-05)"
   xml:space="preserve"
   xmlns:inkscape="http://www.inkscape.org/namespaces/inkscape"
   xmlns:sodipodi="http://sodipodi.sourceforge.net/DTD/sodipodi-0.dtd"
   xmlns="http://www.w3.org/2000/svg"
   xmlns:svg="http://www.w3.org/2000/svg"><defs
     id="defs1" /><sodipodi:namedview
     id="namedview1"
     pagecolor="#ffffff"
     bordercolor="#999999"
     borderopacity="1"
     inkscape:showpageshadow="2"
     inkscape:pageopacity="0"
     inkscape:pagecheckerboard="0"
     inkscape:deskcolor="#d1d1d1"
     inkscape:zoom="0.8010194"
     inkscape:cx="291.50355"
     inkscape:cy="473.14709"
     inkscape:window-width="2560"
     inkscape:window-height="1371"
     inkscape:window-x="0"
     inkscape:window-y="0"
     inkscape:window-maximized="1"
     inkscape:current-layer="g1" /><g
     inkscape:groupmode="layer"
     inkscape:label="Image"
     id="g1"><path
       style="fill:#508c2f;fill-opacity:1"
       d="m 504.40107,989.09457 c -5.07357,-2.30414 -7.16438,-5.19201 -12.4287,-17.1668 C 486.60232,959.7125 475.34615,939.02597 467.5258,927 c -16.69078,-25.66671 -32.11488,-40.01819 -65.55908,-61 -44.0786,-27.65348 -53.14918,-35.49917 -61.2745,-53 -1.65981,-3.575 -3.08013,-6.59806 -3.15628,-6.71792 -0.0761,-0.11985 -3.49038,0.91967 -7.58719,2.31005 -4.09681,1.39038 -11.89289,3.26073 -17.32461,4.15633 -24.36957,4.01815 -50.01097,-4.19165 -71.49333,-22.89055 -24.0788,-20.95893 -34.91888,-50.00837 -29.73434,-79.68265 0.89605,-5.12861 1.40337,-9.6901 1.1274,-10.13664 -0.27598,-0.44654 -2.19425,-1.1151 -4.26282,-1.48568 -6.27972,-1.12499 -21.35419,-9.0623 -28.55754,-15.03668 -7.17323,-5.9494 -14.2823,-14.79415 -18.37574,-22.86215 -7.55046,-14.88165 -8.37264,-38.53467 -1.93456,-55.65411 0.41405,-1.10099 -1.59461,-2.52135 -7.55117,-5.33958 -14.14139,-6.69072 -25.63088,-20.73204 -30.40699,-37.16042 -1.1519,-3.96219 -1.73779,-9.39635 -1.72506,-16 0.0325,-16.85037 5.84155,-29.90263 19.33122,-43.43495 12.04711,-12.0852 28.2038,-20.04523 48.35069,-23.82127 6.98198,-1.3086 14.47702,-1.69545 32.1081,-1.65724 20.04332,0.0434 25.35099,0.41109 41.28832,2.86 10.05857,1.54559 18.5147,2.58378 18.79138,2.30709 0.27669,-0.27669 -1.03337,-5.62195 -2.91123,-11.87835 -1.87787,-6.2564 -3.96306,-13.72394 -4.63375,-16.59453 -1.17592,-5.03297 -1.51614,-5.41666 -9.53246,-10.75053 -34.13666,-22.71375 -66.04874,-65.08306 -80.35163,-106.68194 -13.3627,-38.86441 -15.96488,-86.33089 -7.00668,-127.80877 8.13612,-37.67149 26.19713,-62.75099 51.53613,-71.56303 6.84765,-2.38138 25.0286,-5.10113 26.20903,-3.92071 0.33397,0.33398 -0.74195,1.54551 -2.39094,2.69228 -1.64899,1.14678 -6.18128,5.2726 -10.07174,9.1685 -11.85924,11.87579 -17.76205,26.88583 -15.46817,39.33345 3.28805,17.84243 16.1343,29.95376 34.04174,32.09427 24.96016,2.98354 39.87771,-6.54549 71.98921,-45.98527 22.25625,-27.33542 43.35117,-46.90696 64.97546,-60.28319 33.7744,-20.891993 69.72556,-31.750327 110.02967,-33.232279 44.51899,-1.636929 86.25879,10.225739 124.50566,35.385149 22.01088,14.47912 40.78087,32.11836 62.00675,58.27132 21.96352,27.06183 35.82573,39.38957 49.49325,44.01464 5.51788,1.86724 8.08732,2.13586 17.00535,1.77779 12.59099,-0.50555 19.10517,-3.00952 26.97144,-10.36748 14.17415,-13.25826 15.86162,-34.07731 4.2121,-51.96648 -3.85032,-5.91259 -12.15872,-14.43575 -17.43889,-17.88965 -4.34598,-2.84281 -3.33683,-3.7252 3.5,-3.06033 18.68874,1.81744 30.83942,6.83784 41.97608,17.34359 18.51845,17.46937 28.64286,41.49129 33.34211,79.10991 1.83736,14.70853 1.83868,45.35106 0.003,60.07602 -6.13658,49.21367 -26.0563,91.0913 -60.57059,127.33881 -9.05624,9.51102 -23.10262,21.4353 -32.12813,27.27428 l -6.62796,4.2879 -2.78071,11.2805 c -1.52939,6.20427 -3.61047,13.71683 -4.62463,16.69458 -1.01416,2.97774 -1.63034,5.62766 -1.36929,5.88871 0.26104,0.26105 8.92471,-0.74023 19.25258,-2.22507 63.65499,-9.15167 102.52038,-0.62705 126.37881,27.71957 13.89679,16.51103 18.27626,37.64828 11.81325,57.01602 -5.32872,15.96862 -18.00272,29.81574 -32.19676,35.17691 -2.63046,0.99354 -4.95545,2.08604 -5.16666,2.42777 -0.2112,0.34173 0.73624,4.43748 2.10543,9.10167 3.13061,10.66456 3.56482,26.14117 1.00563,35.84369 -4.82051,18.27572 -19.1485,35.76231 -36.36396,44.38039 -5.031,2.51853 -11.69597,5.14952 -14.81105,5.84664 -5.55949,1.24416 -5.65466,1.32404 -5.16933,4.33856 2.5467,15.81824 3.00781,23.19654 1.96564,31.45306 -2.55502,20.24208 -10.22459,35.01932 -26.78304,51.60386 -12.63037,12.65027 -21.93013,18.68619 -36.11012,23.43692 -18.52498,6.20644 -37.4604,6.22698 -55.38988,0.0601 -4.675,-1.60798 -8.61253,-2.59943 -8.75006,-2.20324 -0.13753,0.3962 -2.3868,4.54536 -4.99838,9.22036 -3.29126,5.89168 -7.35715,11.12963 -13.24995,17.06945 -8.50688,8.57476 -14.57755,12.86836 -53.1786,37.61157 -25.02911,16.04362 -40.66211,30.69316 -55.29771,51.81898 -10.7418,15.5053 -22.77294,37.30512 -28.87141,52.31354 -1.37971,3.3955 -3.50924,7.57895 -4.7323,9.29657 -2.53106,3.55455 -8.98392,6.84597 -13.42159,6.84597 -1.65,0 -4.84452,-0.83768 -7.09893,-1.86151 z M 494,773.17256 V 649.34513 l -10.95482,-1.25084 -10.95482,-1.25083 -6.87861,3.61461 c -9.74467,5.12068 -21.46183,14.78469 -38.2368,31.53673 -16.09323,16.07123 -24.16421,25.70471 -33.70178,40.22623 -6.61292,10.06857 -15.76266,28.39957 -18.72068,37.50584 -5.80905,17.8832 -2.99116,33.89547 8.14472,46.28126 5.6054,6.23455 11.20349,10.07512 31.30279,21.4753 8.525,4.83532 18.2,10.58176 21.5,12.76987 18.84517,12.49554 38.30583,30.49224 50.05634,46.29076 C 489.8336,892.29483 493.48321,897 493.66659,897 493.84996,897 494,841.27765 494,773.17256 Z M 535.24998,889.5 c 10.90125,-14.73502 34.07548,-36.29899 51.26692,-47.70464 5.49071,-3.64281 18.3081,-11.64632 28.4831,-17.7856 11.12195,-6.71063 20.61395,-13.22566 23.80059,-16.33604 6.11092,-5.96465 10.73534,-14.63765 12.26417,-23.00118 2.56601,-14.03751 -4.79633,-36.26873 -20.13959,-60.81318 -16.29532,-26.06745 -55.06205,-64.78431 -74.42517,-74.32942 -5.34251,-2.63361 -4.31722,-2.63767 -23.25,0.0921 l -3.25,0.46859 v 123.12135 c 0,67.71674 0.18249,122.93385 0.40553,122.70469 0.22304,-0.22917 2.40304,-3.11667 4.84445,-6.41667 z M 314.61374,773.52207 c 6.56981,-1.95103 13.50145,-6.63778 16.74986,-11.32525 1.44373,-2.0833 3.92182,-7.59235 5.50687,-12.24232 3.93627,-11.54763 7.08303,-18.37458 13.47762,-29.23991 13.38951,-22.75072 35.36373,-50.5793 56.52073,-71.57893 l 15.47947,-15.36434 -2.32558,-1.75419 c -7.10132,-5.35654 -24.08064,-8.49758 -35.14957,-6.5024 -22.04209,3.97309 -65.57959,24.56422 -92.77675,43.87891 -11.73798,8.336 -25.68227,20.45466 -30.27768,26.31366 -16.69654,21.28747 -15.258,42.81777 4.16622,62.35507 12.19038,12.26135 21.84786,16.84941 35.58357,16.90498 4.43767,0.018 10.30803,-0.63242 13.04524,-1.44528 z m 426.61039,-3.28284 c 22.03286,-10.95102 34.82334,-32.91497 30.78011,-52.85594 -2.11759,-10.44385 -6.57349,-17.98805 -16.48597,-27.91203 -14.89914,-14.91644 -38.10984,-30.80789 -63.62405,-43.56086 -32.83741,-16.4134 -53.31704,-22.83599 -66.74444,-20.93164 -6.77766,0.96124 -21.28933,5.13399 -24.03768,6.91189 -1.0518,0.68042 2.84042,5.10069 16.07299,18.25359 23.20554,23.06583 40.43719,44.93771 55.13947,69.98771 6.53568,11.1356 10.03714,18.69119 14.63666,31.58348 6.44154,18.05544 14.897,23.55977 35.26291,22.95541 10.26006,-0.30447 11.08224,-0.49624 19,-4.43161 z M 238.19624,661.42424 c 1.81707,-0.92549 8.47876,-5.59818 14.80376,-10.38374 25.95158,-19.63525 40.18495,-27.93242 74.62964,-43.50441 12.81801,-5.79485 23.65757,-10.54298 24.08791,-10.5514 0.43035,-0.008 1.4398,-0.4311 2.24322,-0.93929 1.1491,-0.72682 -0.96016,-3.30935 -9.88579,-12.10388 l -11.34657,-11.17991 -10.11421,0.69519 c -28.37631,1.9504 -78.00786,14.34056 -99.95656,24.95344 -13.35617,6.45812 -24.16622,17.33733 -26.74571,26.91683 -2.99709,11.13033 4.39967,26.66896 15.90457,33.41128 9.10897,5.33821 19.16259,6.36184 26.37974,2.68589 z m 570.30482,-2.35015 c 10.76469,-5.29944 18.72971,-16.38774 18.72971,-26.07409 0,-9.70283 -8.31203,-20.58204 -23.3773,-30.59741 -19.2709,-12.81127 -61.8188,-25.04186 -99.06428,-28.47649 -11.86835,-1.09445 -12.90224,-1.04799 -15.59917,0.70088 C 686.41828,576.42437 669,594.22797 669,595.26363 c 0,0.27637 5.5125,2.63831 12.25,5.24875 31.85217,12.34112 78.42264,38.99465 95.55969,54.69138 9.55078,8.74806 19.35191,9.94503 31.69137,3.87033 z M 539.42359,612.48907 c 42.69543,-5.59688 80.80252,-24.28339 112.93808,-55.38126 30.20939,-29.23389 53.14774,-70.10361 64.66625,-115.21717 8.9432,-35.02706 10.45233,-78.57297 3.89976,-112.52761 C 710.75962,276.67332 681.09887,222.98681 644.25874,190.59082 630.06115,178.10593 623.71032,173.5856 612.5,167.98587 c -11.88709,-5.93779 -22.14625,-8.4277 -31.34791,-7.60819 -15.56446,1.38619 -27.10817,12.08425 -27.10817,25.12232 0,14.24715 13.84717,26.76059 25.99355,23.48991 l 3.96253,-1.067 0.002,-5.21145 c 0.003,-9.86589 4.70234,-15.16805 12.74207,-14.37642 15.62941,1.53895 21.3522,25.88787 10.49773,44.66496 -6.03181,10.43439 -20.15526,22.13214 -33.00139,27.33342 -11.55891,4.68009 -20.44716,6.17349 -36.23996,6.08904 -17.28448,-0.0924 -28.36272,-2.58812 -43.27735,-9.74941 -36.59743,-17.57235 -61.98645,-55.09729 -62.90986,-92.98069 -0.10467,-4.29421 -0.58708,-8.05287 -1.07203,-8.35258 -1.38647,-0.85689 -13.09139,5.29697 -24.14334,12.69334 -59.28585,39.6763 -100.01863,109.44633 -107.64703,184.38558 -1.73596,17.05362 -0.74497,48.60473 2.02844,64.5813 7.71081,44.41906 22.69745,80.99007 46.30689,113 13.32119,18.06101 36.3886,39.61871 56.3473,52.65949 21.92966,14.32859 51.64535,25.66942 77.99828,29.76761 12.26824,1.90786 43.45596,1.9413 57.79229,0.062 z m -53.73727,-46.99458 c -27.0564,-4.39197 -52.04913,-15.10345 -74.40418,-31.88844 -11.12636,-8.35408 -26.75344,-23.44976 -33.61853,-32.47533 -3.57207,-4.69622 -4.12788,-6.13779 -4.43399,-11.5 -0.2651,-4.64398 0.11425,-6.97949 1.5643,-9.63072 3.77661,-6.90501 13.54533,-9.93254 20.50574,-6.35515 1.76019,0.90468 9.30718,7.54218 16.77111,14.75 33.27141,32.12986 61.9854,44.90608 100.92923,44.90823 37.29747,0.002 64.51493,-12.4236 97.56797,-44.54295 7.86233,-7.64023 15.74379,-14.41027 17.75354,-15.25 14.46159,-6.04244 26.47143,8.32687 19.60719,23.45926 -3.37048,7.43033 -29.95165,33.01301 -43.9622,42.31082 -18.14379,12.04075 -37.14749,20.1519 -58.19608,24.83922 -12.30977,2.74127 -46.80445,3.5307 -60.0841,1.37506 z M 504,489.30915 c -1.375,-0.23017 -4.75,-1.12321 -7.5,-1.98452 -23.86377,-7.47426 -38.66698,-31.61999 -34.50677,-56.28451 6.78363,-40.21788 56.76929,-56.20213 85.42505,-27.31693 10.45788,10.54162 15.13358,23.0207 14.31737,38.21195 -0.56683,10.5498 -2.61051,16.74191 -8.52603,25.83278 C 543.09842,483.30665 522.3637,492.38316 504,489.30915 Z M 400.71856,442 c -0.28285,-0.825 -4.88434,-14.325 -10.22552,-30 -5.34119,-15.675 -13.29375,-37.66067 -17.67236,-48.85704 -4.37861,-11.19637 -8.00528,-21.09637 -8.05928,-22 -0.054,-0.90363 5.3321,-15.59296 11.96912,-32.64296 6.63701,-17.05 14.70028,-38.96708 17.91838,-48.70462 3.21811,-9.73754 6.10838,-17.72504 6.42284,-17.75 0.31445,-0.025 1.80687,4.08074 3.31648,9.12378 4.57835,15.29456 15.27078,45.12813 24.18112,67.46915 4.63686,11.62608 8.43066,21.46076 8.43066,21.85485 0,0.39409 -3.55026,10.00685 -7.88947,21.36168 -4.33922,11.35484 -11.28075,30.99516 -15.42565,43.64516 -4.14489,12.65 -8.64223,26.375 -9.9941,30.5 -1.35186,4.125 -2.68936,6.825 -2.97222,6 z M 621,441.65994 c 0,-3.6604 -19.05309,-59.49568 -30.37802,-89.02312 l -4.55,-11.86317 10.08446,-25.63683 C 601.7029,301.03657 609.57393,279.375 613.64763,267 c 4.0737,-12.375 7.67189,-23.175 7.99597,-24 0.37844,-0.96337 1.13109,0.1099 2.1038,3 7.26291,21.57947 16.12673,45.77782 25.00241,68.25691 l 10.56475,26.75692 -7.10787,17.74308 c -7.76565,19.38504 -18.37945,48.95667 -25.29422,70.47343 C 622.97317,441.48831 621,445.63644 621,441.65994 Z M 200.64639,565.14088 C 228.837,553.90978 251.26424,548.1629 288.7376,542.56791 298.19705,541.15556 306.17586,540 306.4683,540 c 1.43266,0 0.0485,-3.04917 -5.0577,-11.14169 C 298.33642,523.98624 295.59808,520 295.32538,520 c -0.27269,0 -9.34496,-1.183 -20.16059,-2.6289 -34.21852,-4.57452 -68.01674,-3.6874 -86.66479,2.27476 -16.8468,5.38625 -27.47193,16.10556 -27.49442,27.73812 -0.0244,12.60947 12.11417,23.35496 25.04753,22.17299 2.50421,-0.22886 9.07119,-2.2161 14.59328,-4.41609 z M 849.03477,565.75 c 10.26605,-5.37315 14.90174,-14.35229 11.98009,-23.20497 -2.00932,-6.08829 -12.20977,-16.08611 -20.40939,-20.00396 -18.81205,-8.98855 -52.61401,-10.56133 -97.10547,-4.51824 -12.8751,1.74877 -15.25814,2.35185 -16.82227,4.25728 -2.72314,3.31732 -10.97572,16.75593 -10.54871,17.17764 0.20404,0.20151 5.77098,1.10268 12.37098,2.0026 38.32536,5.22573 66.0631,12.25737 96.5,24.46316 10.27481,4.1204 15.90844,4.07973 24.03477,-0.17351 z"
       id="path1" /></g></svg>
